<?xml version="1.0" standalone="no"?>
<!DOCTYPE svg PUBLIC "-//W3C//DTD SVG 1.1//EN" "http://www.w3.org/Graphics/SVG/1.1/DTD/svg11.dtd" >
<svg xmlns="http://www.w3.org/2000/svg" xmlns:xlink="http://www.w3.org/1999/xlink" version="1.1">
<metadata></metadata>
<defs>
<font id="wenyue_gudianmingchaoti_ajrfc" horiz-adv-x="282" vert-adv-y="1000" >
<font-face units-per-em="1000" ascent="800" descent="-200" />
<missing-glyph horiz-adv-x="500" />
<glyph horiz-adv-x="0" vert-adv-y="0" />
<glyph horiz-adv-x="333" />
<glyph unicode="!" horiz-adv-x="258" d="M66 617q-1 5 19 8.5t43 3.5q65 0 63 -12q-20 -82 -31 -186q-9 -90 -19 -242q0 -4 -14 -4t-14 4q-14 296 -47 428zM71 44q0 24 15 38t40 14t39.5 -14t14.5 -38q0 -26 -14.5 -40.5t-39.5 -14.5t-40 15t-15 40z" />
<glyph unicode="&#x22;" horiz-adv-x="296" d="M33 607q-2 11 29 22t53 11q8 0 12 -1.5t3 -5.5l-59 -267q-1 -1 -4.5 -2t-6.5 -1t-3 2zM182 607q-2 11 29 22t53 11q8 0 12 -1.5t3 -5.5l-59 -267q-1 -1 -4.5 -2t-6.5 -1t-3 2z" />
<glyph unicode="#" horiz-adv-x="526" d="M58 99q0 21 4 21h73l27 153h-64q-5 0 -5 25q0 21 4 21h73l29 163q1 2 6 1.5t17 -2.5q7 -1 11 -2t7 -2t4 -2t1 -2l-27 -154h139l29 163q1 2 6 1.5t17 -2.5q7 -1 11 -2t7 -2t4 -2t1 -2l-27 -154h58q5 0 5 -23t-5 -23h-66l-27 -153h58q5 0 5 -22q0 -23 -5 -23h-66l-28 -157 q0 -4 -24 0q-6 1 -10.5 1.5t-7 1.5t-3.5 2t-1 2l26 150h-139l-28 -157q0 -4 -24 0q-6 1 -10.5 1.5t-7 1.5t-3.5 2t-1 2l26 150h-64q-5 0 -5 24zM183 120h139l27 153h-139z" />
<glyph unicode="$" horiz-adv-x="517" d="M72 196v1q0 4 5 4.5t7 -2.5q33 -87 74.5 -136t99.5 -53v265q-26 18 -35 23q-52 34 -75 52q-65 52 -65 126q0 70 51 111t124 48v84q0 8 13 8t13 -8v-83h2q69 0 124 -23q16 -7 16 -19l2 -136q0 -3 -5.5 -4.5t-6.5 2.5q-44 144 -132 159v-249l19 -12q47 -29 79 -54 q72 -58 72 -136q0 -68 -46.5 -115t-123.5 -58v-99q0 -7 -13 -7t-13 7v96h-17q-41 0 -85 11.5t-68 27.5q-8 4 -10 18zM165 519q0 -41 23 -72.5t70 -63.5v234q-43 -1 -68 -27.5t-25 -70.5zM284 11q84 9 84 100q0 83 -84 146v-246z" />
<glyph unicode="%" horiz-adv-x="574" d="M21 433q0 53 36 90q37 37 93 37q54 0 90 -37.5t36 -92.5q0 -54 -36 -90.5t-90 -36.5q-56 0 -93 37q-36 38 -36 93zM80 11l371 544q2 4 16 -7q13 -10 12 -13l-370 -542q-2 -3 -17 6q-14 9 -12 12zM95 436q0 -118 62 -118q26 0 35.5 25t9.5 80q0 122 -58 122 q-49 0 -49 -109zM298 125q0 53 37 90q38 38 92 38q55 0 91 -38t36 -92t-36.5 -91t-90.5 -37q-56 0 -93 37q-36 38 -36 93zM372 129q0 -119 62 -119q27 0 36.5 25t9.5 81q0 122 -59 122q-49 0 -49 -109z" />
<glyph unicode="&#x26;" horiz-adv-x="710" d="M65 133q0 52 33 91q38 43 101 89q-10 14 -30 49q-29 54 -29 108q0 76 50.5 126t132.5 50q59 0 94 -25.5t35 -73.5q0 -36 -20 -68q-17 -28 -44 -50.5t-81 -59.5l-19 -13q72 -112 206 -215q16 39 16 98q0 52 -18 75t-60 23q-2 0 -2.5 6t2.5 6l228 1q4 0 4 -6t-4 -6 q-46 -2 -58.5 -13t-25.5 -57q-26 -90 -60 -144q130 -97 200 -112q3 -1 3 -6.5t-3 -5.5h-145q-31 0 -110 56q-77 -68 -195 -68q-96 0 -148.5 42t-52.5 103zM153 183q0 -62 50.5 -107t128.5 -45q69 0 112 37l-35 28q-123 99 -199 201q-57 -53 -57 -114zM222 541q0 -77 55 -168 q84 74 84 154q0 44 -21 69t-57 25q-61 0 -61 -80z" />
<glyph unicode="'" horiz-adv-x="147" d="M33 607q-2 11 29 22t53 11q8 0 12 -1.5t3 -5.5l-59 -267q-1 -1 -4.5 -2t-6.5 -1t-3 2z" />
<glyph unicode="(" horiz-adv-x="309" d="M51 304q0 142 59 255q59 114 164 166q2 1 4 -1.5t0 -4.5q-130 -139 -130 -415t130 -415q4 -1 -1 -5l-3 -1q-106 55 -164 166q-59 113 -59 255z" />
<glyph unicode=")" horiz-adv-x="309" d="M31 -111q130 139 130 415t-130 415q-4 1 1 5q2 1 3 1q105 -54 164 -167t59 -254q0 -142 -59 -255q-59 -114 -164 -166q-2 -1 -4 1.5t0 4.5z" />
<glyph unicode="*" horiz-adv-x="448" d="M53 409l153 82l2 1q3 0 5.5 -2.5t1.5 -4.5l-63 -113q-3 -4 -10 -4q-25 0 -73 27q-17 10 -16 14zM66 569q0 22 5 50q7 22 10 22l126 -121q1 -1 1 -3t-1.5 -4t-2.5 -2l-128 24q-10 1 -10 34zM209 657q-1 5 7.5 10.5t26.5 10.5q38 11 59 11q5 0 7.5 -1t1.5 -3l-75 -156 q-1 -3 -5.5 -3t-4.5 3zM232 481q-1 2 3 5.5t6 1.5l89 -95q13 -6 -31 -56q-33 -36 -35 -27zM247 510q0 3 1 3l117 56q11 9 40 -40q27 -46 19 -49l-173 24q-4 0 -4 6z" />
<glyph unicode="+" horiz-adv-x="398" d="M29 191q0 21 4 21h143v143q0 5 23 5t23 -5v-143h142q5 0 5 -23t-5 -23h-142v-141q0 -5 -25 -5q-21 0 -21 4v142h-142q-5 0 -5 25z" />
<glyph unicode="," horiz-adv-x="222" d="M43 42q0 25 15.5 39t42.5 14q33 0 52 -25.5t19 -73.5q0 -81 -77 -155q-1 -1 -3 -1q-3 0 -5 3t0 5q49 49 49 118q0 28 -10 41q-9 -15 -35 -15q-22 0 -35 13.5t-13 36.5z" />
<glyph unicode="-" d="M27 193q0 22 3 22l214 35q5 2 5 -25q0 -24 -5 -26l-212 -35q-5 -2 -5 29z" />
<glyph unicode="." horiz-adv-x="204" d="M48 44q0 24 15 38t40 14t39.5 -14t14.5 -38q0 -26 -14.5 -40.5t-39.5 -14.5t-40 15t-15 40z" />
<glyph unicode="/" horiz-adv-x="348" d="M26 -152l252 882q2 4 24 -3q7 -2 12 -4t7 -3.5t1 -3.5l-251 -880q-1 -4 -24 2q-12 3 -17 5.5t-4 4.5z" />
<glyph unicode="0" horiz-adv-x="501" d="M41 313q0 150 57 237t155 87q96 0 151.5 -88t55.5 -239q0 -149 -56.5 -236t-152.5 -87q-97 0 -153.5 87.5t-56.5 238.5zM142 320q0 -160 29.5 -237t91.5 -77q49 0 72 71t23 221q0 321 -116 321q-100 0 -100 -299z" />
<glyph unicode="1" horiz-adv-x="391" d="M44 487q-2 4 0 6l193 139q6 2 7 2q6 0 6 -6v-547q0 -43 20.5 -56t87.5 -13q3 0 3 -6t-3 -6q-48 0 -63 1l-90 1l-87 -1q-16 -1 -65 -1q-3 0 -3 6t3 6q64 0 86 13.5t22 55.5v372q0 67 -32 67q-25 0 -77 -36l-2 -1q-4 0 -6 4z" />
<glyph unicode="2" horiz-adv-x="445" d="M28 23l31 38q95 120 128 166q91 127 91 227q0 62 -28.5 93.5t-79.5 31.5q-48 0 -80.5 -25t-43.5 -70q0 -1 -4 -1t-6 1t-1 3q12 69 60.5 109t120.5 40q73 0 114.5 -41.5t41.5 -111.5q0 -54 -26 -109q-26 -53 -62 -97q-36 -43 -92 -104l-32 -34q-31 -35 -43 -51q-6 -7 5 -7 q107 0 164 5q52 5 71.5 19.5t20.5 46.5q0 2 6 2t6 -2l-1 -141q0 -11 -9 -11h-341q-5 0 -10 9.5t-1 13.5z" />
<glyph unicode="3" horiz-adv-x="435" d="M36 65q0 4 4.5 6.5t6.5 -0.5q46 -46 119 -46q66 0 98.5 38t32.5 104q0 151 -164 151q-4 0 -4.5 6.5t4.5 6.5q77 0 111 33.5t34 100.5q0 123 -101 123q-42 0 -77 -20t-52 -57q0 -1 -3 -1q-2 0 -4 1t-3.5 2t-0.5 2q21 56 68.5 88.5t110.5 32.5q69 0 112 -39t43 -100 q0 -54 -34.5 -100t-91.5 -67q68 -4 109 -48t41 -107q0 -84 -53.5 -135.5t-140.5 -51.5q-95 0 -164 75z" />
<glyph unicode="4" horiz-adv-x="472" d="M14.5 187.5q-2.5 3.5 0.5 7.5l320 435q2 2 6 2q9 0 9 -6v-409q4 0 68 2q4 0 4 -21t-4 -21l-68 3v-99q0 -45 11 -57t53 -12q3 0 3 -6t-3 -6q-33 0 -44 1l-66 1l-78 -1q-13 -1 -56 -1q-2 0 -2 6t2 6q64 2 75.5 11t14.5 58v101q-174 2 -238 2q-5 0 -7.5 3.5zM72 220 q-6 -7 4 -7q149 0 184 1v269z" />
<glyph unicode="5" horiz-adv-x="449" d="M48 65q0 4 4 6.5t6 -0.5q42 -46 115 -46q65 0 99 40.5t34 111.5q0 79 -36.5 124t-106.5 45q-44 0 -83 -13q-12 0 -10 12l32 268q1 7 3 9.5t10 2.5q151 0 180 1q45 2 59 7t22 21q1 2 6 1.5t4 -4.5l-16 -96q-1 -12 -6 -15.5t-18 -3.5l-209 5q-13 0 -16 -14l-20 -166 q54 18 107 18q92 0 144 -50t52 -141q0 -96 -57 -148q-56 -52 -145 -52q-90 0 -153 75z" />
<glyph unicode="6" horiz-adv-x="493" d="M57 228q-2 97 37.5 189t116 154t170.5 65q4 0 5 -4.5t-3 -5.5q-72 -20 -125 -79t-78.5 -138.5t-25.5 -170.5q0 -100 32 -166q31 -64 89 -64q80 0 80 141q0 158 -92 158q-35 0 -63 -21l-2 -1q-3 0 -5.5 3.5t-1.5 5.5q40 46 108 46q70 0 112 -46t42 -117q0 -82 -56.5 -136 t-142.5 -54q-93 0 -145 64.5t-52 176.5z" />
<glyph unicode="7" horiz-adv-x="429" d="M21 475l42 176q0 2 3 2.5t5.5 -0.5t2.5 -3q-1 -2 -1 -9q0 -10 9.5 -13t38.5 -3h266q4 0 6.5 -4.5t1.5 -8.5l-186 -580q-6 -20 -10.5 -26t-14.5 -6h-120q-3 0 -3 6t3 6q62 0 98 93l173 429q5 7 -4 7q-155 0 -204 -4q-55 -5 -69 -16q-15 -13 -25 -48q0 -3 -4 -3 q-3 0 -6 1.5t-2 3.5z" />
<glyph unicode="8" horiz-adv-x="493" d="M41 162q0 60 35.5 109t95.5 80q-78 57 -78 140q0 69 47.5 107t115.5 38q65 0 108 -36t43 -91q0 -81 -87 -148q47 -30 72 -52t44.5 -59t20.5 -86q0 -78 -61 -127.5t-151 -49.5q-93 0 -149 50.5t-56 124.5zM140 186q0 -81 35 -129.5t95 -48.5q48 0 74 32t26 87q0 46 -20 80 q-17 31 -43 52.5t-80 55.5l-35 22q-52 -52 -52 -151zM171 537q0 -51 29 -85.5t97 -75.5q26 52 26 121q0 119 -83 119q-33 0 -51 -21.5t-18 -57.5z" />
<glyph unicode="9" horiz-adv-x="489" d="M41 457q0 78 56 128.5t142 50.5q93 0 145.5 -64.5t52.5 -176.5q1 -72 -23 -143.5t-66.5 -129.5t-106.5 -95t-137 -40q-2 0 -3.5 2.5t-1.5 5.5t2 3q112 30 175 138t63 249q0 99 -32 165q-32 65 -89 65q-80 0 -80 -139q0 -159 96 -159q33 0 59 19l2 1q3 0 5.5 -4t1.5 -6 q-39 -42 -106 -42q-70 0 -112.5 48t-42.5 124z" />
<glyph unicode=":" horiz-adv-x="204" d="M48 44q0 24 15 38t40 14t39.5 -14t14.5 -38q0 -26 -14.5 -40.5t-39.5 -14.5t-40 15t-15 40zM48 325q0 24 15 38t40 14t39.5 -14t14.5 -38q0 -26 -14.5 -40.5t-39.5 -14.5t-40 15t-15 40z" />
<glyph unicode=";" horiz-adv-x="229" d="M50 42q0 25 15.5 39t42.5 14q33 0 52 -25.5t19 -73.5q0 -81 -77 -155q-1 -1 -3 -1q-3 0 -5 3t0 5q49 49 49 118q0 28 -10 41q-9 -15 -35 -15q-22 0 -35 13.5t-13 36.5zM50 325q0 24 15 38t40 14t39.5 -14t14.5 -38q0 -26 -14.5 -40.5t-39.5 -14.5t-40 15t-15 40z" />
<glyph unicode="&#x3c;" horiz-adv-x="407" d="M31 190q0 15 5 17l334 147q5 3 6 -7q1 -5 1 -12q0 -22 -7 -26l-278 -119l278 -119q7 -3 7 -26q0 -11 -1.5 -16t-5.5 -4l-334 148q-5 3 -5 17z" />
<glyph unicode="=" horiz-adv-x="468" d="M29 121q0 20 4 20h401q5 0 5 -22t-5 -22h-400q-5 0 -5 24zM29 262q0 20 4 20h401q5 0 5 -22t-5 -22h-400q-5 0 -5 24z" />
<glyph unicode="&#x3e;" horiz-adv-x="407" d="M30 44q0 24 7 26l278 119l-278 119q-7 2 -7 26q1 21 7 20l334 -148q5 -2 5 -17q0 -14 -5 -17l-334 -147q-3 -1 -5 4.5t-2 14.5z" />
<glyph unicode="?" horiz-adv-x="336" d="M34 547q0 33 37.5 55.5t92.5 22.5q65 0 106.5 -31.5t41.5 -87.5q0 -36 -15.5 -59.5t-55.5 -59.5l-9 -8q-6 -5 -10 -8q-61 -55 -61 -123q0 -20 6 -53q0 -2 -3 -4t-6.5 -2t-5.5 2q-26 59 -26 121q0 28 9.5 48t32.5 46q26 30 36.5 53.5t10.5 59.5q0 39 -14 64t-38 25 q-28 0 -33 -43q-3 -30 -14 -45.5t-37 -15.5q-22 0 -33.5 12t-11.5 31zM104 44q0 24 15 38t40 14t39.5 -14t14.5 -38q0 -26 -14.5 -40.5t-39.5 -14.5t-40 15t-15 40z" />
<glyph unicode="@" horiz-adv-x="726" d="M67 175q-3 137 100 232t237 93q114 0 188.5 -68.5t74.5 -164.5q2 -85 -59 -149.5t-141 -62.5q-62 0 -62 58q0 18 4 31l4 20q-34 -51 -74 -81.5t-75 -30.5q-25 0 -40.5 16t-15.5 48v3.5t0.5 5t1 6.5t0.5 7q9 79 78.5 151.5t129.5 69.5q32 0 49 -23q23 11 29 30q1 1 6 1 q11 0 11 -2l-41 -225q-3 -14 -3 -25q0 -37 38 -37q40 0 75.5 44t35.5 114q0 100 -71.5 170t-176.5 70q-112 0 -179.5 -80t-67.5 -196q0 -122 75.5 -196t199.5 -74q90 0 167 50h1q4 0 6 -5q1 -2 -1 -3q-89 -75 -207 -75q-129 0 -213 75.5t-84 202.5zM282 146q0 -38 25 -38 q32 0 73 53.5t53 111.5q2 16 2 18q0 44 -30 44q-38 0 -72 -46q-34 -44 -46 -106q-5 -25 -5 -37z" />
<glyph unicode="A" horiz-adv-x="711" d="M-7 6q0 6 5 6q41 0 66 26t62 109l214 484q2 3 9 3t8 -3l244 -494q36 -72 59.5 -98.5t50.5 -26.5q5 0 5 -6t-5 -6t-61 2t-61 2q-13 0 -59 -2t-53 -2q-4 0 -4 6t4 6q56 0 56 28q0 14 -17 51l-108 219h-181l-77 -173q-13 -29 -13 -54q0 -71 95 -71q5 0 5 -6t-5 -6 q-8 0 -50 2q-50 2 -68 2q-15 0 -63 -2q-42 -2 -53 -2q-5 0 -5 6zM238 336h157l-82 167z" />
<glyph unicode="B" horiz-adv-x="583" d="M39 6q0 6 3 6q48 0 62.5 13t14.5 56v463q0 43 -14.5 56t-61.5 13q-2 0 -2 6t2 6l52 -1q58 -2 71 -2q28 0 59 3q45 3 62 3q87 0 135 -34.5t48 -95.5q0 -48 -31 -86.5t-88 -60.5q82 -9 131 -55t49 -114q0 -79 -63 -132.5t-157 -53.5q-29 0 -67 3q-51 3 -78 3l-71 -1 q-13 -1 -53 -1q-3 0 -3 6zM215 81q0 -35 15 -48.5t64 -13.5q136 0 136 139q0 77 -40.5 122.5t-114.5 45.5q-28 0 -60 -2v-243zM215 352l42 -1q58 0 88.5 37.5t30.5 100.5q0 57 -27 88t-79 31q-32 0 -43.5 -13.5t-11.5 -52.5v-190z" />
<glyph unicode="C" horiz-adv-x="669" d="M49 316v7q-1 133 109 223q110 91 255 90h6q107 0 170 -29q14 -6 15 -24l12 -130q0 -3 -5 -3.5t-6 2.5q-29 78 -87.5 119t-137.5 41q-104 0 -163 -74t-59 -195v-7q0 -134 72 -232t173 -97h6q135 0 205 168q2 3 5 3q7 0 7 -4l-15 -128q-2 -12 -4.5 -16t-10.5 -7 q-90 -35 -186 -35h-6q-84 0 -153 28q-71 28 -115 76t-66 106q-22 55 -21 113v5z" />
<glyph unicode="D" horiz-adv-x="701" d="M29 6q0 6 3 6q50 0 63.5 12t13.5 57v463q0 44 -13.5 56.5t-62.5 12.5q-2 0 -2 6t2 6l52 -1q58 -2 71 -2q40 0 81 3q66 2 67 2h3q149 0 247 -87q97 -86 97 -212v-5v-6q0 -138 -96.5 -229.5t-229.5 -91.5h-6q-32 0 -74 3q-60 3 -89 3l-71 -1q-13 -1 -53 -1q-3 0 -3 6z M205 92q0 -42 22 -59t81 -17q106 0 171 76t65 209q0 132 -64 219t-166 87q-65 0 -87 -12t-22 -53v-450z" />
<glyph unicode="E" horiz-adv-x="547" d="M39 6q0 6 3 6q50 0 63 12t13 57v463q0 44 -13.5 56.5t-62.5 12.5q-3 0 -3 6t3 6h417q9 0 9 -9l2 -130q0 -1 -3 -2t-5.5 -0.5t-2.5 1.5q-25 114 -140 114h-40q-37 0 -51.5 -13t-14.5 -45v-203h97q109 0 109 74q0 3 6 3t6 -3l-1 -55q-1 -7 -1 -32l1 -47q2 -42 2 -51 q0 -3 -6 -3t-6 3q0 85 -112 85h-95v-227q0 -33 12.5 -46t44.5 -13h49q134 0 170 130q0 1 4 1q8 0 8 -3q-10 -73 -10 -139q0 -15 -15 -15h-434q-3 0 -3 6z" />
<glyph unicode="F" horiz-adv-x="518" d="M34 6q0 6 3 6q53 0 67 12t14 57v463q0 44 -13.5 56.5t-62.5 12.5q-3 0 -3 6t3 6h417q9 0 9 -9l2 -130q0 -1 -3 -2t-5.5 -0.5t-2.5 1.5q-25 114 -140 114h-40q-36 0 -51 -13t-15 -43v-217h82q112 0 112 74q0 3 6 3t6 -3l-1 -87q0 -36 1 -47l1 -51q0 -3 -6 -3t-6 3 q0 86 -115 86h-80v-216q0 -46 20 -59.5t92 -13.5q2 0 2 -6t-2 -6q-48 0 -63 1l-99 1l-73 -1q-13 -1 -53 -1q-3 0 -3 6z" />
<glyph unicode="G" horiz-adv-x="718" d="M49 306v5q0 140 108 233q108 92 265 92h7q108 0 170 -30q13 -6 14 -23l12 -130q0 -3 -5 -3.5t-6 2.5q-31 76 -91.5 117.5t-140.5 41.5q-109 0 -168.5 -71t-59.5 -197v-7q0 -142 78 -236q79 -95 195 -95h5q66 0 90.5 23.5t24.5 97.5q-1 33 -1.5 44t-5.5 27.5t-7.5 19 t-18.5 8.5t-27.5 6t-43.5 2q-6 0 -6 8t5 8q92 -5 133 -5q50 0 104 3q5 0 5 -7t-5 -7q-28 -3 -33 -11q-7 -12 -8 -100v-6q0 -26 2 -46.5t3.5 -30.5t1.5 -11q0 -7 -12 -12q-124 -28 -225 -28q-163 0 -261 90.5t-98 227.5z" />
<glyph unicode="H" horiz-adv-x="762" d="M29 6q0 6 3 6q53 0 67 12t14 57v463q0 44 -14.5 56.5t-65.5 12.5q-2 0 -2 6t2 6l53 -1q58 -2 72 -2q19 0 83 2l53 1q2 0 2 -6t-2 -6q-53 0 -69 -13.5t-16 -57.5v-204h343v204q0 45 -15 58t-70 13q-2 0 -2 6t2 6l50 -1q62 -2 83 -2q11 0 75 2l54 1q3 0 3 -6t-3 -6 q-52 0 -66.5 -12.5t-14.5 -56.5v-463q0 -45 14 -57t67 -12q3 0 3 -6t-3 -6q-41 0 -54 1l-75 1l-83 -1q-13 -1 -50 -1q-2 0 -2 6t2 6q56 0 70.5 12t14.5 57v231h-343v-231q0 -45 14.5 -57t70.5 -12q2 0 2 -6t-2 -6q-40 0 -53 1l-83 1l-73 -1q-13 -1 -53 -1q-3 0 -3 6z" />
<glyph unicode="I" horiz-adv-x="338" d="M41 6q0 6 3 6q50 0 63.5 12t13.5 57v463q0 44 -14 56.5t-63 12.5q-3 0 -3 6t3 6l52 -1q58 -2 72 -2t76 2l50 1q2 0 2 -6t-2 -6q-49 0 -62.5 -13.5t-13.5 -57.5v-461q0 -45 13 -57t63 -12q2 0 2 -6t-2 -6q-39 0 -52 1l-74 1l-72 -1q-13 -1 -52 -1q-3 0 -3 6z" />
<glyph unicode="J" horiz-adv-x="334" d="M-54 -189q0 20 12.5 33t34.5 13q35 0 56 -47q14 -32 31 -32q51 0 51 156v610q0 44 -16 56.5t-73 12.5q-2 0 -2 6t2 6l60 -1q64 -2 76 -2q14 0 68 2l46 1q3 0 3 -6t-3 -6q-41 0 -52.5 -13.5t-11.5 -57.5v-554q0 -109 -52 -170t-147 -61q-37 0 -60 14.5t-23 39.5z" />
<glyph unicode="K" horiz-adv-x="653" d="M29 6q0 6 3 6q50 0 63.5 12t13.5 57v463q0 44 -13.5 56.5t-62.5 12.5q-2 0 -2 6t2 6l52 -1q58 -2 71 -2t75 2l50 1q2 0 2 -6t-2 -6q-49 0 -62.5 -13.5t-13.5 -57.5v-211l196 198q31 31 31 52q0 32 -61 32q-2 0 -2 6t2 6l45 -1q58 -2 80 -2q25 0 79 2l43 1q3 0 3 -6t-3 -6 q-46 0 -98 -24t-93 -66l-129 -129l147 -194q39 -52 59.5 -79.5t43 -51.5t30 -32.5t25 -15.5t24 -7t30.5 -2q2 0 2 -6t-2 -6h-113l-39 -1q-13 0 -24 6q-9 5 -23 22l-48 63l-41 55l-138 182l-26 -26v-220q0 -45 13 -57t63 -12q3 0 3 -6t-3 -6q-39 0 -51 1l-74 1l-71 -1 q-13 -1 -53 -1q-3 0 -3 6z" />
<glyph unicode="L" horiz-adv-x="541" d="M29 6q0 6 3 6q50 0 63 12t13 57v463q0 44 -13.5 56.5t-62.5 12.5q-3 0 -3 6t3 6l50 -1q58 -2 73 -2q13 0 75 2l50 1q2 0 2 -6t-2 -6q-49 0 -63 -13t-14 -57v-458q0 -39 11.5 -49t54.5 -10h59q71 0 120 39t65 108q0 1 4 1q8 0 8 -3q-10 -80 -10 -156q0 -15 -15 -15h-468 q-3 0 -3 6z" />
<glyph unicode="M" horiz-adv-x="850" d="M28 6q0 6 3 6q41 0 63.5 28.5t23.5 80.5l9 431q-33 61 -89 61q-3 0 -3 6t3 6l43 -1q9 -1 34 -1l47 1q5 1 20 1q13 0 20.5 -9t25.5 -43l220 -429l199 456q11 25 31 25q3 0 18 -1t26 -1l55 1q9 1 38 1q2 0 2 -6t-2 -6q-47 0 -69 -18q-20 -16 -20 -51v-6l23 -457 q3 -46 15.5 -57.5t61.5 -11.5q2 0 2 -6t-2 -6q-40 0 -53 1l-71 1l-72 -1q-12 -1 -50 -1q-2 0 -2 6t2 6q48 0 62 12q11 10 12 42q0 7 -1 15l-20 422l-213 -496q-1 -4 -8 -4q-5 0 -9 4l-250 494l-9 -380q-2 -109 85 -109q3 0 3 -6t-3 -6q-32 0 -42 1l-55 1l-59 -1 q-10 -1 -42 -1q-3 0 -3 6z" />
<glyph unicode="N" horiz-adv-x="732" d="M26 619q0 6 2 6l40 -1q9 -1 37 -1l64 1q8 1 28 1q8 0 13 -4t13 -17q7 -11 23 -31l360 -424v354q0 110 -81 110q-2 0 -2 6t2 6l41 -1q42 -2 53 -2q6 0 54 2l44 1q2 0 2 -6t-2 -6q-84 0 -84 -110v-517q0 -2 -5 -3t-7 1l-469 545v-408q0 -109 82 -109q2 0 2 -6t-2 -6 q-32 0 -42 1l-52 1l-58 -1q-11 -1 -47 -1q-3 0 -3 6t3 6q43 0 66.5 28t23.5 81v439q-50 53 -97 53q-2 0 -2 6z" />
<glyph unicode="O" horiz-adv-x="766" d="M49 312v9q0 70 29 129q31 63 82.5 103t113.5 62q60 21 121 21h6h8q87 0 158 -44q74 -46 113 -118q37 -69 37 -147v-8v-7q0 -130 -104 -228q-104 -97 -239 -96h-8h-8q-132 0 -220 94q-89 94 -89 224v6zM156 348v-8q0 -136 69 -232t169 -96h6q92 0 151 74.5t59 203.5 q0 140 -68.5 230.5t-180.5 90.5q-98 0 -151.5 -69.5t-53.5 -193.5z" />
<glyph unicode="P" horiz-adv-x="550" d="M34 6q0 6 3 6q50 0 63 12t13 57v463q0 44 -13.5 56.5t-62.5 12.5q-3 0 -3 6t3 6l52 -1q58 -2 71 -2q23 0 56 3q48 3 81 3q101 0 157.5 -43t56.5 -128q0 -90 -66.5 -142.5t-152.5 -52.5q-25 0 -47 5q-3 0 -3 5q0 3 1.5 6t3.5 2q15 -4 35 -4q54 0 89 44t35 122 q0 79 -37 122.5t-102 43.5q-36 0 -47.5 -12t-11.5 -54v-457q0 -46 18.5 -59.5t85.5 -13.5q2 0 2 -6t-2 -6q-49 0 -64 1l-87 1l-72 -1q-13 -1 -52 -1q-3 0 -3 6z" />
<glyph unicode="Q" horiz-adv-x="766" d="M49 312v9q0 70 29 129q31 63 82.5 103t113.5 62q60 21 121 21h6h8q87 0 158 -44q74 -46 113 -118q37 -69 37 -147v-8q0 -106 -65 -191.5t-169 -120.5q41 -80 104 -130q64 -52 123 -52q11 0 35 2q2 0 3.5 -2t1.5 -4.5t-1 -3.5q-45 -12 -82 -12q-75 0 -155 49 q-80 48 -138 134h-8h-8q-132 0 -220 94q-89 94 -89 224v6zM156 348v-8q0 -137 69 -232q69 -96 169 -96h6q92 0 151 74.5t59 203.5q0 140 -68.5 230.5t-180.5 90.5q-98 0 -151.5 -69.5t-53.5 -193.5z" />
<glyph unicode="R" horiz-adv-x="690" d="M39 6q0 6 3 6q50 0 63.5 12t13.5 57v463q0 44 -13.5 56.5t-62.5 12.5q-2 0 -2 6t2 6l52 -1q58 -2 71 -2q30 0 63 3q48 3 66 3q89 0 137 -33.5t48 -93.5q0 -47 -27.5 -88t-73.5 -68q126 -192 191.5 -261t128.5 -72q3 0 3 -6t-3 -6h-161q-48 0 -238 317q-16 -3 -34 -3 q-41 0 -51 1v-234q0 -45 13 -57t63 -12q2 0 2 -6t-2 -6q-39 0 -52 1l-73 1l-71 -1q-13 -1 -53 -1q-3 0 -3 6zM215 342q27 -3 58 -3q60 0 84 27.5t24 98.5q0 78 -26 111t-77 33q-36 0 -49.5 -14t-13.5 -53v-200z" />
<glyph unicode="S" horiz-adv-x="507" d="M72 196v1q0 4 5 4.5t7 -2.5q31 -80 74 -136q44 -53 108 -53q47 0 74.5 24.5t27.5 76.5q0 44 -20 78q-17 31 -43.5 52.5t-81.5 56.5q-52 34 -75 52q-65 52 -65 126q0 76 59.5 118t143.5 42q69 0 124 -23q16 -7 16 -19l2 -136q0 -3 -5.5 -4.5t-6.5 2.5q-48 161 -154 161 q-45 0 -71 -26.5t-26 -71.5q0 -37 18 -66q18 -26 43.5 -46.5t76.5 -52.5q47 -29 79 -54q72 -58 72 -136q0 -77 -59.5 -126.5t-153.5 -49.5q-41 0 -85 11.5t-68 27.5q-8 4 -10 18z" />
<glyph unicode="T" horiz-adv-x="640" d="M39 454q5 30 9 94q5 72 5 99q0 5 6 5t6 -5q0 -22 55 -22q86 -3 201 -3q38 0 126 2l67 1q39 0 56 5t22 20q1 4 6 4t5 -4q-3 -32 -6 -94q-3 -63 -3 -102q0 -2 -5.5 -2t-6.5 2q-19 150 -147 150q-41 0 -52.5 -11t-11.5 -51v-461q0 -45 15 -57t72 -12q3 0 3 -6t-3 -6 q-42 0 -55 1l-82 1l-78 -1q-14 -1 -58 -1q-2 0 -2 6t2 6q57 0 73 12.5t16 56.5v463q0 37 -12 48.5t-51 11.5q-118 0 -160 -151q-1 -2 -6.5 -1.5t-5.5 2.5z" />
<glyph unicode="U" horiz-adv-x="759" d="M19 619q0 6 2 6l53 -1q58 -2 71 -2q16 0 74 2l50 1q3 0 3 -6t-3 -6q-49 0 -62.5 -13.5t-13.5 -57.5v-321q0 -94 45.5 -145.5t124.5 -51.5q98 0 194 92v426q0 44 -13.5 57.5t-62.5 13.5q-2 0 -2 6t2 6l51 -1q58 -2 70 -2q14 0 72 2l52 1q3 0 3 -6t-3 -6q-49 0 -63 -12.5 t-14 -56.5v-463q0 -45 13.5 -57t63.5 -12q3 0 3 -6t-3 -6l-85 1l-65 -1q-13 0 -16 3t-3 16v72q-58 -54 -112 -78.5t-118 -24.5q-99 0 -164.5 55t-65.5 143v358q0 44 -13.5 56.5t-62.5 12.5q-2 0 -2 6z" />
<glyph unicode="V" horiz-adv-x="662" d="M0 619q0 6 3 6l26 -1q32 -2 51 -2q51 0 125 2q11 1 41 1q2 0 2 -6t-2 -6q-63 0 -63 -44q0 -18 10 -38l186 -398l146 379q9 24 9 43q0 58 -74 58q-2 0 -2 6t2 6l48 -1q54 -2 70 -2q12 0 46 2l43 1q2 0 2 -6t-2 -6q-36 0 -66.5 -27.5t-49.5 -77.5l-194 -507q-1 -4 -11 -4 t-11 4l-253 541q-18 38 -36.5 54.5t-42.5 16.5q-3 0 -3 6z" />
<glyph unicode="W" horiz-adv-x="909" d="M0 619q0 6 3 6l26 -1q32 -2 51 -2q43 0 121 2q11 1 40 1q2 0 2 -6t-2 -6q-62 0 -62 -45q0 -19 7 -37l128 -371l145 465q1 3 12 3q9 0 11 -3l190 -470l97 349q7 28 7 44q0 65 -83 65q-2 0 -2 6t2 6l54 -1q64 -2 79 -2q12 0 46 2l43 1q2 0 2 -6t-2 -6q-38 0 -70 -28 t-46 -77l-144 -507q0 -4 -11 -4q-10 0 -11 4l-193 476l-149 -476q0 -4 -11 -4q-10 0 -11 4l-187 541q-15 41 -32 56t-47 15q-3 0 -3 6z" />
<glyph unicode="X" horiz-adv-x="648" d="M6 6q0 6 3 6q72 0 159 120l115 156l-161 248q-28 42 -52.5 59.5t-54.5 17.5q-3 0 -3 6t3 6l41 -1q38 -2 41 -2q15 0 85 2l56 1q2 0 2 -6t-2 -6q-40 0 -40 -17q0 -8 9 -23l137 -210l93 132q35 50 35 80q0 38 -54 38q-2 0 -2 6t2 6l48 -1q54 -2 73 -2q11 0 45 2l41 1 q2 0 2 -6t-2 -6q-72 0 -161 -123l-108 -146l170 -261q46 -71 115 -71q3 0 3 -6t-3 -6q-33 0 -43 1l-59 1l-81 -1q-12 -1 -51 -1q-3 0 -3 6t3 6q39 0 39 17q0 9 -9 22l-142 218l-100 -141q-34 -46 -34 -78q0 -38 54 -38q3 0 3 -6t-3 -6q-37 0 -48 1l-72 1l-46 -1 q-9 -1 -40 -1q-3 0 -3 6z" />
<glyph unicode="Y" horiz-adv-x="616" d="M0 619q0 6 3 6l33 -1q30 -2 32 -2q13 0 95 2l63 1q2 0 2 -6t-2 -6q-41 0 -41 -27q0 -15 12 -33l146 -223l101 167q26 44 26 71q0 45 -56 45q-2 0 -2 6t2 6l52 -1q56 -2 78 -2q10 0 40 2l37 1q2 0 2 -6t-2 -6q-33 0 -75 -34.5t-75 -88.5l-114 -185v-224q0 -45 13 -57 t63 -12q2 0 2 -6t-2 -6q-38 0 -51 1l-74 1l-71 -1q-13 -1 -53 -1q-2 0 -2 6t2 6q50 0 63.5 12t13.5 57v206l-152 231q-60 95 -106 95q-3 0 -3 6z" />
<glyph unicode="Z" horiz-adv-x="602" d="M56 487l40 168q0 1 4 1q6 0 7 -3q-3 -18 7.5 -23t50.5 -5h364q5 0 7.5 -5t-0.5 -8l-360 -585q-4 -5 -3 -6.5t7 -1.5h219q59 0 102 36t53 92q1 2 6.5 2t5.5 -2l-14 -139q0 -3 -3 -6.5t-7 -3.5q-198 2 -478 2q-4 0 -6 4.5t0 8.5l366 587q3 5 2.5 6.5t-7.5 1.5 q-130 0 -196 -8q-62 -7 -96 -32t-60 -83q0 -2 -3 -2t-5.5 1t-2.5 3z" />
<glyph unicode="[" horiz-adv-x="274" d="M74 -106v821q0 7 1.5 8.5t7.5 1.5h153q3 0 3 -6t-3 -6q-49 0 -63 -13.5t-14 -57.5v-676q0 -44 14 -57.5t63 -13.5q3 0 3 -6t-3 -6h-153q-6 0 -7.5 2t-1.5 9z" />
<glyph unicode="\" horiz-adv-x="348" d="M103 484l7 4l4 2q11 4 13 2l118 -412q0 -2 -12.5 -5t-13.5 -1z" />
<glyph unicode="]" horiz-adv-x="274" d="M35 -111q0 6 3 6q49 0 63 13.5t14 57.5v676q0 44 -14 57.5t-63 13.5q-3 0 -3 6t3 6h153q6 0 7.5 -1.5t1.5 -8.5v-821q0 -7 -1.5 -9t-7.5 -2h-153q-3 0 -3 6z" />
<glyph unicode="^" horiz-adv-x="392" d="M58 380l127 249q2 5 11 5t11 -5l126 -249v-1q0 -1 -2 -3t-4 -2t-3 1l-128 147l-128 -147q-1 -1 -3 -1q-5 1 -7 6z" />
<glyph unicode="_" horiz-adv-x="398" d="M29 -55q0 21 4 21h331q5 0 5 -23t-5 -23h-330q-5 0 -5 25z" />
<glyph unicode="`" horiz-adv-x="213" d="M30 727q6 3 12 4q18 0 45 -6q26 -4 28 -9l39 -240q0 -1 -2 -2.5t-5 -1.5t-3 2z" />
<glyph unicode="a" horiz-adv-x="490" d="M33 163q0 105 69.5 170t162.5 65q56 0 97 -26q19 7 35 25q1 1 3 1q7 0 7 -4v-286q0 -58 30 -58q15 0 45 13h1q5 0 7 -7q1 -3 -1 -4l-131 -63q-1 -1 -5 -1q-9 0 -16.5 20.5t-9.5 51.5q-75 -72 -145 -72q-65 0 -107 47.5t-42 127.5zM124 195q0 -75 27.5 -118t75.5 -43 q46 0 99 44v212q0 38 -25 63t-62 25q-52 0 -83.5 -51t-31.5 -132z" />
<glyph unicode="b" horiz-adv-x="514" d="M6.5 654.5q-0.5 2.5 1.5 3.5l140 66l4 1q4 0 9 -4t5 -7v-389q72 74 150 74q69 0 116.5 -49.5t47.5 -136.5q0 -104 -64.5 -165t-152.5 -61q-79 0 -140 46l-85 -39h-2q-2 0 -4 2t-1.5 4.5t2.5 2.5q28 18 40 40.5t12 59.5v489q0 36 -6.5 51t-23.5 15q-16 0 -40 -12h-1 q-2 0 -4.5 3t-3 5.5zM166 154q0 -73 38.5 -110t85.5 -37t73.5 44t26.5 125q0 86 -31 131.5t-85 45.5q-52 0 -108 -47v-152z" />
<glyph unicode="c" horiz-adv-x="420" d="M33 186v7q0 85 70 143q71 59 154 59h6q52 0 87 -20.5t35 -50.5q0 -18 -12.5 -29.5t-35.5 -11.5q-39 0 -55 45q-10 27 -21.5 37t-34.5 10q-47 0 -74.5 -43t-27.5 -115q0 -85 40 -135t119 -50q50 0 98 29h2q3 0 5.5 -3t-0.5 -6q-70 -64 -155 -64q-94 0 -147 58.5t-53 139.5 z" />
<glyph unicode="d" horiz-adv-x="511" d="M33 181v6q-1 99 69 155q70 57 157 57h3q45 0 84 -16v209q0 36 -6.5 51t-23.5 15q-12 0 -41 -12h-2q-2 0 -3.5 2.5t-2 5t1.5 3.5l140 67l4 1q4 0 9 -4t5 -7v-600q0 -35 7 -49.5t24 -14.5q16 0 45 12h2q2 0 3.5 -2.5t2 -5t-1.5 -3.5l-129 -62q-1 -1 -5 -1q-10 0 -18.5 21 t-9.5 53q-80 -75 -157 -75q-67 0 -112 53.5t-45 140.5zM123 212q0 -83 32.5 -132t84.5 -49q53 0 106 50v239q-40 55 -103 55q-120 0 -120 -163z" />
<glyph unicode="e" horiz-adv-x="414" d="M33 181q0 89 65 151.5t159 62.5q59 0 91 -26.5t32 -72.5q0 -27 -11 -27h-55l-188 -2q-3 -21 -3 -45q0 -88 41 -138.5t113 -50.5q57 0 101 29l2 1q3 0 5 -4t0 -6q-69 -65 -154 -65q-89 0 -143.5 56t-54.5 137zM130 285l155 3q-2 87 -64 87q-33 0 -57 -24t-34 -66z" />
<glyph unicode="f" horiz-adv-x="305" d="M21 366q0 8 4 8q37 0 50.5 9.5t14.5 34.5q5 161 60.5 234.5t168.5 73.5q55 0 86.5 -15.5t31.5 -41.5q0 -20 -13.5 -32t-32.5 -12t-28.5 8t-21.5 30q-13 23 -25 32.5t-35 9.5q-51 0 -79.5 -66.5t-28.5 -199.5v-62q53 1 117 9q7 0 7 -24q0 -6 -1.5 -12.5t-4.5 -10.5t-5 -4 q-55 14 -113 16v-270q0 -45 15.5 -57t76.5 -12q4 0 4 -6t-4 -6l-67 1q-15 1 -66 1l-60 -1q-11 -1 -44 -1q-3 0 -3 6t3 6q41 0 52 12t11 57v225q0 33 -12.5 42t-53.5 9q-4 0 -4 9z" />
<glyph unicode="g" horiz-adv-x="468" d="M33 163q0 105 69.5 170t162.5 65q56 0 97 -26q19 7 35 25q1 1 3 1q7 0 7 -4v-464q0 -97 -55 -154t-153 -57q-65 0 -105 20.5t-40 55.5q0 44 43 44q22 0 34.5 -10.5t26.5 -34.5q19 -30 35 -42t47 -12q42 0 64 38t22 128v153q-73 -71 -144 -71q-65 0 -107 47.5t-42 127.5z M124 195q0 -75 27.5 -118t75.5 -43q46 0 99 44v212q0 38 -25 63t-62 25q-52 0 -83.5 -51t-31.5 -132z" />
<glyph unicode="h" horiz-adv-x="506" d="M2 651q-2 5 1 7l140 66l4 1q4 0 9 -4t5 -7v-399q70 82 152 82q55 0 86 -33.5t31 -90.5v-192q0 -41 11.5 -55t45.5 -14q3 0 3 -6t-3 -6q-31 0 -41 1l-57 1l-57 -1q-10 -1 -40 -1q-3 0 -3 6t3 6q33 0 45 14.5t12 54.5v149q0 56 -21 82.5t-65 26.5q-57 0 -102 -45v-213 q0 -41 11.5 -55t45.5 -14q3 0 3 -6t-3 -6q-31 0 -41 1l-57 1l-57 -1q-10 -1 -40 -1q-3 0 -3 6t3 6q33 0 45 14.5t12 54.5v511q0 36 -7 51t-24 15q-15 0 -40 -12h-1q-4 0 -6 5z" />
<glyph unicode="i" horiz-adv-x="266" d="M22.5 321q-1.5 5 1.5 7l143 67l4 1q4 0 8.5 -4.5t4.5 -7.5v-21q-2 -56 -2 -99v-183q0 -41 11.5 -55t45.5 -14q3 0 3 -6t-3 -6q-31 0 -41 1l-57 1l-57 -1q-10 -1 -40 -1q-3 0 -3 6t3 6q33 0 45 14.5t12 54.5v181q0 66 -32 66q-15 0 -40 -12h-1q-4 0 -5.5 5zM79 555 q0 24 15 38t41 14q25 0 39 -14t14 -38q0 -26 -14 -40.5t-39 -14.5q-26 0 -41 14.5t-15 40.5z" />
<glyph unicode="j" horiz-adv-x="261" d="M7.5 -274.5q-0.5 2.5 1.5 3.5q48 21 68.5 67.5t20.5 132.5v333q0 66 -30 66q-16 0 -41 -12h-1q-4 0 -6 5t1 7l144 67l3 1q4 0 8.5 -4.5t4.5 -7.5v-21q-2 -56 -2 -99v-312q0 -101 -35.5 -152t-130.5 -82q-1 0 -3 2.5t-2.5 5zM76 555q0 24 15 38t41 14q25 0 39 -14t14 -38 q0 -26 -14 -40.5t-39 -14.5q-26 0 -41 14.5t-15 40.5z" />
<glyph unicode="k" horiz-adv-x="491" d="M2 651q-2 5 1 7l139 66q1 1 5 1t9 -4t5 -7v-512l106 96q28 24 28 47q0 29 -44 29q-3 0 -3 6t3 6q33 0 44 -1l77 -1l70 1q9 1 39 1q2 0 2 -6t-2 -6q-44 0 -95.5 -21t-94.5 -59l-43 -38l133 -175q53 -69 111 -69q3 0 3 -6t-3 -6q-30 0 -40 1l-57 1l-76 -1q-11 -1 -45 -1 q-2 0 -2 6t2 6q41 0 41 20q0 9 -9 21l-116 153l-29 -25v-100q0 -41 11.5 -55t45.5 -14q3 0 3 -6t-3 -6q-31 0 -41 1l-57 1l-57 -1q-10 -1 -40 -1q-3 0 -3 6t3 6q33 0 45 14.5t12 54.5v511q0 36 -7 51t-24 15q-15 0 -40 -12h-1q-4 0 -6 5z" />
<glyph unicode="l" horiz-adv-x="265" d="M16 654q0 4 2 4l140 66l4 1q4 0 9 -4t5 -7v-633q0 -41 11.5 -55t45.5 -14q3 0 3 -6t-3 -6q-30 0 -40 1l-59 1l-57 -1q-10 -1 -40 -1q-3 0 -3 6t3 6q33 0 45 14.5t12 54.5v511q0 36 -6.5 51t-23.5 15q-14 0 -40 -12h-1q-6 0 -7 8z" />
<glyph unicode="m" horiz-adv-x="772" d="M7 326.5q0 2.5 2 3.5l132 64l6 2q12 0 21 -23t10 -58q69 82 147 82q95 0 109 -88q70 88 152 88q111 0 111 -124v-192q0 -41 11 -55t45 -14q4 0 4 -6t-4 -6q-30 0 -40 1l-57 1l-58 -1q-9 -1 -39 -1q-3 0 -3 6t3 6q33 0 44.5 14t11.5 55v149q0 109 -78 109q-57 0 -101 -47 v-211q0 -41 11.5 -55t45.5 -14q3 0 3 -6t-3 -6q-30 0 -40 1l-58 1l-57 -1q-10 -1 -40 -1q-3 0 -3 6t3 6q33 0 45 14.5t12 54.5v149q0 56 -19 82.5t-60 26.5q-55 0 -98 -45v-213q0 -41 11.5 -55t45.5 -14q4 0 4 -6t-4 -6q-30 0 -40 1l-57 1l-57 -1q-10 -1 -41 -1q-2 0 -2 6 t2 6q34 0 45.5 14t11.5 55v191q0 61 -32 61q-15 0 -51 -14h-1q-2 0 -4 2.5t-2 5z" />
<glyph unicode="n" horiz-adv-x="523" d="M7 326.5q0 2.5 2 3.5l132 64l6 2q12 0 21 -23t10 -58q71 83 153 83q55 0 85.5 -33t30.5 -91v-193q0 -41 11.5 -55t45.5 -14q4 0 4 -6t-4 -6q-30 0 -40 1l-57 1l-57 -1q-10 -1 -41 -1q-2 0 -2 6t2 6q34 0 45.5 14t11.5 55v150q0 56 -20.5 82.5t-64.5 26.5q-57 0 -103 -46 v-213q0 -41 11.5 -55t45.5 -14q4 0 4 -6t-4 -6q-30 0 -40 1l-57 1l-57 -1q-10 -1 -41 -1q-2 0 -2 6t2 6q34 0 45.5 14t11.5 55v191q0 61 -32 61q-15 0 -51 -14h-1q-2 0 -4 2.5t-2 5z" />
<glyph unicode="o" horiz-adv-x="486" d="M33 198q0 93 66 147t153 54q89 0 145 -61.5t56 -145.5q0 -89 -64 -147t-153 -58q-90 0 -146.5 61t-56.5 150zM128 233q0 -97 39.5 -161.5t96.5 -64.5q93 0 93 153q0 98 -40 158t-98 60q-91 0 -91 -145z" />
<glyph unicode="p" horiz-adv-x="513" d="M-3 324q-2 5 1 7l131 63q2 2 6 2q11 0 20 -19t11 -51q76 73 156 73q65 0 111 -50.5t46 -133.5q0 -111 -66.5 -169.5t-152.5 -58.5q-48 0 -93 15v-196q0 -44 16.5 -56.5t76.5 -12.5q2 0 2 -6t-2 -6q-44 0 -58 1l-76 1l-57 -1q-10 -1 -41 -1q-3 0 -3 6t3 6q37 0 47.5 12.5 t10.5 56.5v466q0 33 -7.5 47.5t-25.5 14.5q-17 0 -49 -15h-1q-4 0 -6 5zM167 65q47 -55 115 -55q51 0 79.5 44.5t28.5 129.5q0 77 -35 121t-91 44q-51 0 -97 -43v-241z" />
<glyph unicode="q" horiz-adv-x="497" d="M33 172q0 107 66 167t156 60q77 0 139 -38l76 27l2 1q4 0 5 -4.5t-2 -6.5q-49 -25 -49 -83v-489q0 -44 11 -56.5t48 -12.5q2 0 2 -6t-2 -6q-30 0 -40 1l-59 1l-67 -1q-13 -1 -52 -1q-2 0 -2 6t2 6q49 0 63.5 12.5t14.5 56.5v255q-39 -38 -72.5 -56t-76.5 -18 q-69 0 -116 50t-47 135zM124 209q0 -85 30 -130.5t84 -45.5q51 0 107 46v186q0 55 -35 84t-79 29q-107 0 -107 -169z" />
<glyph unicode="r" horiz-adv-x="374" d="M7 326.5q0 2.5 2 3.5l132 64l6 2q12 0 21 -22t10 -57q70 79 113 79q24 0 44.5 -15.5t20.5 -35.5q0 -18 -11.5 -30t-31.5 -12t-40 20q-18 18 -32 18q-19 0 -63 -45v-215q0 -40 19 -54.5t73 -14.5q4 0 4 -6t-4 -6q-41 0 -54 1l-78 1l-57 -1q-10 -1 -41 -1q-2 0 -2 6t2 6 q34 0 45.5 14t11.5 55v191q0 61 -32 61q-15 0 -51 -14h-1q-2 0 -4 2.5t-2 5z" />
<glyph unicode="s" horiz-adv-x="337" d="M44 121q0 3 5.5 3.5t6.5 -2.5q17 -49 52 -81t74 -32q24 0 38 13.5t14 37.5q0 36 -19.5 58t-66.5 48q-26 14 -35.5 19.5t-25 16.5t-21 20.5t-11 25t-6.5 35.5q0 55 40 84.5t102 29.5q39 0 80 -15q9 -4 9 -11q0 -27 -1 -36l-1 -48q0 -3 -6 -3t-6 3q0 31 -35 60.5t-73 29.5 q-46 0 -46 -43q0 -30 19 -50.5t64 -45.5q38 -21 56 -33q49 -31 49 -88q0 -53 -40 -90.5t-107 -37.5q-54 0 -101 28q-6 6 -6 12z" />
<glyph unicode="t" horiz-adv-x="337" d="M28 367q0 8 4 8q94 3 118 80q2 4 8.5 4t6.5 -4v-79q74 3 133 10q7 0 7 -24q0 -6 -1.5 -12.5t-4 -10.5t-4.5 -4q-58 14 -130 17v-242q0 -77 74 -77q41 0 79 30l2 1q3 0 5.5 -4t-0.5 -7q-71 -65 -140 -65q-46 0 -74 21.5t-28 66.5v227q0 33 -10.5 44t-40.5 11q-4 0 -4 9z " />
<glyph unicode="u" horiz-adv-x="501" d="M8 331.5q0 2.5 2 3.5l127 59l4 1q4 0 9 -4t5 -7v-227q0 -111 84 -111q53 0 98 45v171q0 69 -30 69q-8 0 -29 -8h-2q-3 0 -4.5 5.5t1.5 6.5l126 59l5 1q4 0 9 -4t5 -7v-271q0 -35 7 -49t23 -14q15 0 45 13h1q4 0 6.5 -5t-1.5 -7l-130 -63l-5 -1q-10 0 -18 23.5t-9 59.5 q-69 -80 -148 -80q-53 0 -84 33.5t-31 90.5v148q0 69 -30 69q-9 0 -28 -8h-2q-2 0 -4 3t-2 5.5z" />
<glyph unicode="v" horiz-adv-x="438" d="M-12 380q0 6 3 6q22 0 29 -1l58 -1l74 1q11 1 44 1q3 0 3 -6t-3 -6q-59 0 -59 -23q0 -4 5 -16l115 -228l76 185q7 15 7 33q0 49 -69 49q-2 0 -2 6t2 6q32 0 41 -1l60 -1l39 1q7 1 35 1q3 0 3 -6t-3 -6q-28 0 -48.5 -20t-39.5 -64l-123 -290q-3 -5 -11 -5q-9 0 -12 5 l-148 303q-21 43 -36 57t-37 14q-3 0 -3 6z" />
<glyph unicode="w" horiz-adv-x="673" d="M-12 380q0 6 3 6q22 0 29 -1l58 -1l67 1q11 1 43 1q2 0 2 -6t-2 -6q-53 0 -53 -23q0 -9 4 -16l102 -216l101 267q1 4 10 4q11 0 12 -4l135 -274l69 180q7 15 7 33q0 49 -69 49q-2 0 -2 6t2 6q32 0 41 -1l60 -1l39 1q7 1 35 1q2 0 2 -6t-2 -6q-54 0 -88 -84l-116 -289 q-1 -4 -11 -4t-11 4l-132 268l-101 -268q-1 -4 -11 -4q-9 0 -12 4l-135 302q-20 42 -35.5 56.5t-37.5 14.5q-3 0 -3 6z" />
<glyph unicode="x" horiz-adv-x="439" d="M4 6q0 6 3 6q63 0 125 87l54 73l-87 131q-46 71 -84 71q-3 0 -3 6t3 6q24 0 31 -1l31 -1l67 1q11 1 44 1q2 0 2 -6t-2 -6q-26 0 -26 -14q0 -9 11 -25l62 -94l36 53q22 31 22 52q0 28 -49 28q-2 0 -2 6t2 6q32 0 41 -1l60 -1l40 1q7 1 34 1q3 0 3 -6t-3 -6q-63 0 -126 -87 l-46 -63l93 -141q46 -71 93 -71q3 0 3 -6t-3 -6l-35 1q-8 1 -35 1l-69 -1q-10 -1 -42 -1q-3 0 -3 6t3 6q26 0 26 14q0 8 -11 25l-69 104l-43 -63q-22 -31 -22 -52q0 -28 48 -28q3 0 3 -6t-3 -6q-31 0 -40 1l-60 1l-40 -1q-7 -1 -34 -1q-3 0 -3 6z" />
<glyph unicode="y" horiz-adv-x="494" d="M13 331.5q0 2.5 2 3.5l127 59l4 1q4 0 9 -4t5 -7v-227q0 -110 83 -110q56 0 103 44v171q0 69 -30 69q-8 0 -29 -8h-2q-3 0 -4.5 5.5t1.5 6.5l126 59l5 1q4 0 9 -4t5 -7v-454q0 -98 -54 -154.5t-155 -56.5q-62 0 -103.5 21.5t-41.5 57.5q0 19 12.5 30t32.5 11 q19 0 31 -9.5t29 -34.5q21 -30 38 -42.5t47 -12.5q41 0 62 37t21 129v165q-72 -81 -153 -81q-54 0 -84 33.5t-30 90.5v148q0 69 -30 69q-9 0 -28 -8h-2q-2 0 -4 3t-2 5.5z" />
<glyph unicode="z" horiz-adv-x="405" d="M35 274l39 147q0 2 5 2q2 0 4 -1t2.5 -1.5t0.5 -1.5q-1 -3 -1 -11q0 -13 11 -17.5t39 -4.5h224q5 0 7.5 -4t0.5 -8l-231 -350q-3 -7 5 -7q112 0 159.5 23t63.5 86q1 2 6.5 2t5.5 -2l-3 -115q0 -11 -9 -11h-321q-4 0 -6.5 4t-0.5 8l229 353q4 7 -5 7q-94 0 -144.5 -23.5 t-68.5 -76.5q0 -2 -4 -2q-7 0 -8 4z" />
<glyph unicode="{" horiz-adv-x="289" d="M29 304.5q0 6.5 3 6.5q37 6 51 61t14 157q2 69 6.5 103.5t23 57t44.5 28t79 7.5q4 0 4 -6t-4 -6q-60 0 -62 -106q-3 -123 -9 -173t-28.5 -78t-76.5 -51q53 -24 76 -54q23 -29 29 -79t9 -171q2 -106 62 -106q4 0 4 -6t-4 -6q-43 1 -67 6t-42.5 15t-26.5 34t-12 55t-5 87 q0 103 -14 157.5t-51 60.5q-3 0 -3 6.5z" />
<glyph unicode="|" horiz-adv-x="168" d="M63 -154v885q0 7 23 7q22 0 22 -7v-885q0 -8 -22 -8q-23 0 -23 8z" />
<glyph unicode="}" horiz-adv-x="283" d="M29 -111q0 6 4 6q60 0 62 106q3 121 9 171q6 51 29 80t76 53q-54 22 -77 51q-22 28 -28 78t-9 173q-2 106 -62 106q-4 0 -4 6t4 6q53 -2 79 -7.5t44 -28t23 -57t7 -103.5q0 -102 14 -157t51 -61q3 0 3 -6.5t-3 -6.5q-37 -6 -51 -60.5t-14 -157.5q-1 -56 -5 -87t-12 -55 t-26.5 -34t-42.5 -15t-67 -6q-4 0 -4 6z" />
<glyph unicode="~" horiz-adv-x="443" d="M48 149q61 94 120 94q21 0 63 -16q51 -20 83 -20q44 0 75 39h1q3 0 5.5 -2.5t0.5 -4.5q-36 -55 -62 -76q-22 -19 -51 -19q-22 0 -74 17q-45 19 -80 19q-15 0 -28.5 -4.5t-19.5 -10t-14.5 -13.5t-11.5 -10q0 -1 -2 -1t-4 3t-1 5z" />
<glyph unicode="&#xa5;" horiz-adv-x="607" d="M0 619q0 6 3 6l33 -1q30 -2 32 -2q13 0 95 2l63 1q2 0 2 -6t-2 -6q-41 0 -41 -27q0 -15 12 -33l146 -223l101 167q26 44 26 71q0 45 -56 45q-2 0 -2 6t2 6l52 -1q56 -2 78 -2q10 0 40 2l37 1q2 0 2 -6t-2 -6q-33 0 -75 -34.5t-75 -88.5l-114 -185v-9h107q8 0 8 -13 q0 -14 -8 -14h-107v-47h107q8 0 8 -13t-8 -13h-107v-115q0 -45 13 -57t63 -12q2 0 2 -6t-2 -6q-38 0 -51 1l-74 1l-71 -1q-13 -1 -53 -1q-2 0 -2 6t2 6q50 0 63.5 12t13.5 57v115h-105q-7 0 -7 13t7 13h105v47h-105q-7 0 -7 14q0 13 7 13h99l-146 222q-60 95 -106 95 q-3 0 -3 6z" />
<glyph unicode="&#xad;" d="M27 193q0 22 3 22l214 35q5 2 5 -25q0 -24 -5 -26l-212 -35q-5 -2 -5 29z" />
<glyph unicode="&#x2000;" horiz-adv-x="369" vert-adv-y="0" />
<glyph unicode="&#x2001;" horiz-adv-x="738" vert-adv-y="0" />
<glyph unicode="&#x2002;" horiz-adv-x="369" vert-adv-y="0" />
<glyph unicode="&#x2003;" horiz-adv-x="738" vert-adv-y="0" />
<glyph unicode="&#x2004;" horiz-adv-x="246" vert-adv-y="0" />
<glyph unicode="&#x2005;" horiz-adv-x="184" vert-adv-y="0" />
<glyph unicode="&#x2006;" horiz-adv-x="123" vert-adv-y="0" />
<glyph unicode="&#x2007;" horiz-adv-x="123" vert-adv-y="0" />
<glyph unicode="&#x2008;" horiz-adv-x="92" vert-adv-y="0" />
<glyph unicode="&#x2009;" horiz-adv-x="147" vert-adv-y="0" />
<glyph unicode="&#x200a;" horiz-adv-x="41" vert-adv-y="0" />
<glyph unicode="&#x2010;" d="M27 193q0 22 3 22l214 35q5 2 5 -25q0 -24 -5 -26l-212 -35q-5 -2 -5 29z" />
<glyph unicode="&#x2011;" d="M27 193q0 22 3 22l214 35q5 2 5 -25q0 -24 -5 -26l-212 -35q-5 -2 -5 29z" />
<glyph unicode="&#x2012;" d="M27 193q0 22 3 22l214 35q5 2 5 -25q0 -24 -5 -26l-212 -35q-5 -2 -5 29z" />
<glyph unicode="&#x2013;" horiz-adv-x="560" d="M27 193q0 22 7 22l482 35q11 2 11 -25q0 -24 -11 -26l-478 -35q-11 -2 -11 29z" />
<glyph unicode="&#x2014;" horiz-adv-x="1060" d="M27 193q0 22 14 22l963 35q23 2 23 -25q0 -24 -23 -26l-954 -35q-23 -2 -23 29z" />
<glyph unicode="&#x202f;" horiz-adv-x="147" vert-adv-y="0" />
<glyph unicode="&#x205f;" horiz-adv-x="184" vert-adv-y="0" />
</font>
</defs>
</svg>
