<?xml version="1.0" standalone="no"?><!DOCTYPE svg PUBLIC "-//W3C//DTD SVG 1.1//EN" "http://www.w3.org/Graphics/SVG/1.1/DTD/svg11.dtd"><svg class="icon" height="512" viewBox="0 0 1024 1024" version="1.1" xmlns="http://www.w3.org/2000/svg"><path d="M767.826038 170.898957l-511.652077 0c-70.352161 0-127.913019 54.363033-127.913019 120.806172l0 400.12932c0 66.444162 57.560859 120.807195 127.913019 120.807195l63.95651 0 0 83.098437 63.95651 0 127.913019-83.098437 255.826038 0c70.352161 0 127.913019-54.363033 127.913019-120.807195L895.739057 291.705129C895.739057 225.26199 838.178199 170.898957 767.826038 170.898957zM831.782548 691.833425c0 30.816805-29.289011 56.850686-63.95651 56.850686L493.04943 748.684111l-108.96245 70.788088L384.086981 748.684111l-127.913019 0c-34.667498 0-63.95651-26.033881-63.95651-56.850686L192.217452 291.705129c0-30.816805 29.289011-56.849662 63.95651-56.849662l511.652077 0c34.667498 0 63.95651 26.032858 63.95651 56.849662L831.782548 691.833425zM512 490.681505m-53.29675 0a52.083 52.083 0 1 0 106.5935 0 52.083 52.083 0 1 0-106.5935 0ZM352.108726 490.681505m-53.29675 0a52.083 52.083 0 1 0 106.5935 0 52.083 52.083 0 1 0-106.5935 0ZM671.891274 490.681505m-53.29675 0a52.083 52.083 0 1 0 106.5935 0 52.083 52.083 0 1 0-106.5935 0Z" /></svg>